<?xml version="1.0" standalone="no"?>
<!DOCTYPE svg PUBLIC "-//W3C//DTD SVG 20010904//EN"
 "http://www.w3.org/TR/2001/REC-SVG-20010904/DTD/svg10.dtd">
<svg version="1.0" xmlns="http://www.w3.org/2000/svg"
 width="512.000000pt" height="512.000000pt" viewBox="0 0 512.000000 512.000000"
 preserveAspectRatio="xMidYMid meet">

<g transform="translate(0.000000,512.000000) scale(0.100000,-0.100000)"
fill="#000000" stroke="none">
<path d="M1410 4236 c-582 -175 -811 -248 -827 -264 l-23 -21 0 -859 0 -859
-50 -23 c-64 -30 -123 -88 -157 -153 -37 -70 -39 -197 -5 -267 34 -70 75 -114
139 -147 82 -44 2022 -840 2085 -857 136 -35 279 -29 416 19 37 12 441 177
897 365 537 221 845 353 871 373 114 87 142 239 68 365 -27 46 -77 87 -142
116 l-42 19 0 912 c0 854 -1 914 -18 934 -13 17 -59 32 -202 67 -1158 281
-2173 524 -2187 523 -10 -1 -380 -110 -823 -243z m1902 -177 c582 -140 1058
-256 1057 -259 0 -6 -125 -99 -143 -106 -7 -3 -447 99 -977 227 -530 128 -977
234 -994 236 -20 2 -245 -66 -650 -196 l-619 -200 -83 62 c-45 33 -80 63 -78
66 8 7 1409 428 1420 426 6 -1 486 -116 1067 -256z m-57 -304 c495 -119 901
-218 902 -219 2 -2 2 -374 1 -828 l-3 -826 -395 163 -395 163 -14 42 c-17 51
-116 160 -180 198 -45 27 -50 27 -261 32 l-215 5 -347 144 -348 144 0 226 0
227 138 29 c103 22 143 35 160 52 22 22 22 23 22 348 0 306 1 326 18 321 9 -3
422 -103 917 -221z m-1095 -59 l0 -273 -337 -74 c-275 -60 -342 -78 -360 -96
l-23 -22 0 -509 0 -510 -122 -52 c-68 -29 -158 -68 -201 -86 l-77 -33 2 786 3
787 550 177 c303 97 553 177 558 178 4 1 7 -122 7 -273z m-1280 -852 l0 -794
-80 40 -80 40 0 816 0 815 80 -61 80 -61 0 -795z m3600 -19 l0 -855 -80 -40
-80 -40 0 834 0 835 78 60 c42 33 78 60 80 60 1 1 2 -384 2 -854z m-2640 157
l0 -209 -107 -42 c-60 -24 -114 -45 -120 -48 -10 -4 -13 45 -13 224 l0 229
113 26 c61 14 115 26 120 27 4 0 7 -93 7 -207z m275 -429 c102 -42 185 -79
185 -82 0 -4 -16 -15 -36 -26 -54 -29 -161 -148 -173 -192 -16 -55 -15 -833 1
-884 16 -55 73 -118 132 -145 l51 -24 439 0 c308 0 450 4 478 12 49 15 120 76
144 125 17 34 20 71 24 369 l5 330 430 -178 c236 -98 437 -178 448 -178 10 0
104 43 208 96 l191 96 24 -23 c37 -35 49 -87 31 -131 -9 -20 -26 -43 -39 -52
-12 -8 -408 -173 -878 -366 -581 -240 -879 -357 -930 -368 -61 -12 -91 -13
-160 -5 -79 10 -165 44 -1110 432 -884 363 -1029 426 -1057 455 -53 57 -56
147 -7 206 28 33 49 38 58 15 6 -17 357 -195 383 -195 32 0 607 250 626 271
15 19 17 45 17 208 l0 187 153 62 c83 33 157 61 164 61 7 1 96 -33 198 -76z
m1028 -293 c53 -50 60 -62 51 -77 -10 -17 -40 -18 -474 -18 -434 0 -464 1
-474 18 -9 15 -2 27 51 77 l61 60 362 0 362 0 61 -60z m57 -555 l0 -296 -25
-24 -24 -25 -431 0 -431 0 -24 25 -25 24 0 296 0 295 480 0 480 0 0 -295z"/>
<path d="M2505 3815 c-50 -49 -15 -135 55 -135 19 0 40 9 55 25 16 15 25 36
25 55 0 19 -9 40 -25 55 -15 16 -36 25 -55 25 -19 0 -40 -9 -55 -25z"/>
<path d="M2825 3735 c-16 -15 -25 -36 -25 -55 0 -19 9 -40 25 -55 15 -16 36
-25 55 -25 19 0 40 9 55 25 16 15 25 36 25 55 0 19 -9 40 -25 55 -15 16 -36
25 -55 25 -19 0 -40 -9 -55 -25z"/>
<path d="M3145 3655 c-16 -15 -25 -36 -25 -55 0 -19 9 -40 25 -55 15 -16 36
-25 55 -25 19 0 40 9 55 25 16 15 25 36 25 55 0 19 -9 40 -25 55 -15 16 -36
25 -55 25 -19 0 -40 -9 -55 -25z"/>
<path d="M2505 3575 l-25 -24 0 -349 c0 -319 2 -352 18 -370 19 -24 1232 -512
1270 -512 13 0 34 11 47 25 l25 24 0 429 c0 396 -1 432 -18 452 -14 17 -132
52 -632 185 -338 91 -625 165 -638 165 -13 0 -34 -11 -47 -25z m629 -291 c259
-69 488 -129 509 -135 l37 -10 0 -310 c0 -245 -3 -310 -12 -306 -7 3 -241 96
-520 208 l-508 203 0 238 c0 172 3 238 11 238 7 0 224 -56 483 -126z"/>
<path d="M3465 3575 c-16 -15 -25 -36 -25 -55 0 -19 9 -40 25 -55 15 -16 36
-25 55 -25 19 0 40 9 55 25 16 15 25 36 25 55 0 19 -9 40 -25 55 -15 16 -36
25 -55 25 -19 0 -40 -9 -55 -25z"/>
<path d="M3785 3495 c-16 -15 -25 -36 -25 -55 0 -19 9 -40 25 -55 15 -16 36
-25 55 -25 19 0 40 9 55 25 16 15 25 36 25 55 0 19 -9 40 -25 55 -15 16 -36
25 -55 25 -19 0 -40 -9 -55 -25z"/>
</g>
</svg>
