<?xml version="1.0" standalone="no"?>
<!DOCTYPE svg PUBLIC "-//W3C//DTD SVG 20010904//EN"
 "http://www.w3.org/TR/2001/REC-SVG-20010904/DTD/svg10.dtd">
<svg version="1.0" xmlns="http://www.w3.org/2000/svg"
 width="512.000000pt" height="512.000000pt" viewBox="0 0 512.000000 512.000000"
 preserveAspectRatio="xMidYMid meet">

<g transform="translate(0.000000,512.000000) scale(0.100000,-0.100000)"
fill="#000000" stroke="none">
<path d="M265 5015 l-25 -24 0 -991 0 -991 25 -24 c24 -25 27 -25 200 -25
l175 0 0 -160 0 -160 -280 0 -280 0 0 -80 0 -80 2480 0 2480 0 0 80 0 80
-1560 0 -1560 0 0 160 0 160 1455 0 1456 0 24 25 25 24 0 991 0 991 -25 24
-24 25 -2271 0 -2271 0 -24 -25z m4455 -1015 l0 -880 -1400 0 -1400 0 0 175
c0 173 0 176 -25 200 -20 21 -34 25 -79 25 l-54 0 -4 163 c-4 153 -5 165 -31
214 -32 63 -83 116 -137 143 -22 11 -40 23 -40 26 0 2 9 23 20 44 63 124 11
314 -107 392 -65 42 -104 53 -188 53 -72 0 -86 -3 -143 -34 -69 -38 -110 -80
-144 -151 -31 -64 -32 -196 0 -259 12 -25 22 -46 22 -48 0 -1 -18 -12 -40 -23
-54 -27 -104 -80 -137 -143 -26 -49 -28 -60 -31 -214 l-4 -163 -54 0 c-45 0
-59 -4 -79 -25 -25 -24 -25 -27 -25 -200 l0 -175 -120 0 -120 0 0 880 0 880
2160 0 2160 0 0 -880z m-3377 386 c103 -43 128 -177 48 -257 -112 -113 -296
-12 -267 146 18 94 128 150 219 111z m183 -492 c64 -47 69 -62 72 -225 l3
-149 -320 0 -321 0 0 134 c0 141 7 175 43 215 44 47 67 51 289 48 191 -2 209
-4 234 -23z m234 -894 l0 -360 -480 0 -480 0 0 360 0 360 480 0 480 0 0 -360z"/>
<path d="M3044 4711 c-48 -12 -133 -62 -160 -94 -14 -17 -37 -53 -52 -81 l-27
-51 0 -485 0 -485 34 -63 c38 -70 69 -100 145 -140 l51 -27 645 0 645 0 63 34
c70 38 100 69 140 145 l27 51 0 485 0 485 -27 51 c-40 76 -70 107 -140 145
l-63 34 -625 2 c-344 1 -639 -2 -656 -6z m1282 -177 c15 -11 37 -33 48 -48 21
-27 21 -38 21 -486 0 -448 0 -459 -21 -486 -11 -15 -33 -37 -48 -48 -27 -21
-37 -21 -646 -21 -609 0 -619 0 -646 21 -15 11 -37 33 -48 48 -20 27 -21 41
-24 459 -2 238 0 446 3 464 7 40 49 91 90 109 24 11 148 13 637 11 595 -2 607
-2 634 -23z"/>
<path d="M3120 4320 l0 -80 80 0 80 0 0 80 0 80 -80 0 -80 0 0 -80z"/>
<path d="M3440 4320 l0 -80 400 0 400 0 0 80 0 80 -400 0 -400 0 0 -80z"/>
<path d="M3120 4000 l0 -80 80 0 80 0 0 80 0 80 -80 0 -80 0 0 -80z"/>
<path d="M3440 4000 l0 -80 400 0 400 0 0 80 0 80 -400 0 -400 0 0 -80z"/>
<path d="M3120 3680 l0 -80 80 0 80 0 0 80 0 80 -80 0 -80 0 0 -80z"/>
<path d="M3440 3680 l0 -80 400 0 400 0 0 80 0 80 -400 0 -400 0 0 -80z"/>
<path d="M1025 2227 c-109 -37 -186 -103 -232 -202 -24 -51 -28 -73 -28 -145
0 -72 4 -94 28 -146 36 -77 104 -145 182 -181 51 -24 73 -28 145 -28 72 0 94
4 145 28 78 36 146 104 182 181 24 52 28 74 28 146 0 72 -4 94 -28 146 -57
123 -177 204 -311 211 -41 1 -88 -3 -111 -10z m159 -159 c122 -37 174 -199 97
-305 -79 -109 -253 -105 -326 6 -52 79 -41 185 26 252 56 56 122 71 203 47z"/>
<path d="M1985 2227 c-109 -37 -186 -103 -232 -202 -24 -51 -28 -73 -28 -145
0 -72 4 -94 28 -146 36 -77 104 -145 182 -181 51 -24 73 -28 145 -28 72 0 94
4 145 28 78 36 146 104 182 181 24 52 28 74 28 146 0 72 -4 94 -28 146 -57
123 -177 204 -311 211 -41 1 -88 -3 -111 -10z m159 -159 c122 -37 174 -199 97
-305 -79 -109 -253 -105 -326 6 -52 79 -41 185 26 252 56 56 122 71 203 47z"/>
<path d="M2945 2227 c-109 -37 -186 -103 -232 -202 -24 -51 -28 -73 -28 -145
0 -72 4 -94 28 -146 36 -77 104 -145 182 -181 51 -24 73 -28 145 -28 72 0 94
4 145 28 78 36 146 104 182 181 24 52 28 74 28 146 0 72 -4 94 -28 146 -57
123 -177 204 -311 211 -41 1 -88 -3 -111 -10z m159 -159 c122 -37 174 -199 97
-305 -79 -109 -253 -105 -326 6 -52 79 -41 185 26 252 56 56 122 71 203 47z"/>
<path d="M3905 2227 c-109 -37 -186 -103 -232 -202 -24 -51 -28 -73 -28 -145
0 -72 4 -94 28 -146 36 -77 104 -145 182 -181 51 -24 73 -28 145 -28 72 0 94
4 145 28 78 36 146 104 182 181 24 52 28 74 28 146 0 72 -4 94 -28 146 -57
123 -177 204 -311 211 -41 1 -88 -3 -111 -10z m159 -159 c122 -37 174 -199 97
-305 -79 -109 -253 -105 -326 6 -52 79 -41 185 26 252 56 56 122 71 203 47z"/>
<path d="M545 1586 c-107 -34 -186 -102 -232 -201 -24 -51 -28 -73 -28 -145 0
-77 3 -92 33 -153 19 -38 32 -69 30 -71 -1 -1 -23 -11 -48 -21 -66 -29 -145
-112 -183 -192 l-32 -68 -3 -302 -3 -303 25 -25 25 -25 2431 0 2431 0 25 25
25 25 -3 303 -3 302 -32 68 c-38 80 -117 163 -183 192 -25 10 -47 20 -48 21
-2 2 11 33 30 71 30 61 33 76 33 153 0 72 -4 94 -28 145 -132 282 -524 283
-654 1 -24 -52 -28 -74 -28 -146 0 -77 3 -92 33 -153 19 -38 32 -69 30 -70 -1
-1 -25 -13 -53 -27 -27 -14 -69 -43 -92 -66 l-43 -41 -43 41 c-23 23 -65 52
-92 66 -28 14 -52 26 -53 27 -2 1 11 32 30 70 30 61 33 76 33 153 0 72 -4 94
-28 145 -132 282 -524 283 -654 1 -24 -52 -28 -74 -28 -146 0 -77 3 -92 33
-153 19 -38 32 -69 30 -70 -1 -1 -25 -13 -53 -27 -27 -14 -69 -43 -92 -66
l-43 -41 -43 41 c-23 23 -65 52 -92 66 -28 14 -52 26 -53 27 -2 1 11 32 30 70
30 61 33 76 33 153 0 72 -4 94 -28 145 -132 283 -522 283 -654 0 -24 -51 -28
-73 -28 -145 0 -77 3 -92 33 -153 19 -38 32 -69 30 -70 -1 -1 -25 -13 -53 -27
-27 -14 -69 -43 -92 -66 l-43 -41 -43 41 c-23 23 -65 52 -92 66 -28 14 -52 26
-53 27 -2 1 11 32 30 70 30 61 33 76 33 153 0 72 -4 94 -28 145 -132 283 -522
283 -654 0 -24 -51 -28 -73 -28 -145 0 -77 3 -92 33 -153 19 -38 32 -69 30
-70 -1 -1 -25 -13 -53 -27 -27 -14 -69 -43 -92 -66 l-43 -41 -43 41 c-23 23
-65 52 -92 66 -28 14 -52 26 -53 27 -2 1 11 32 30 70 30 61 33 76 33 153 0 72
-4 94 -28 145 -30 65 -81 124 -138 160 -78 50 -199 68 -284 41z m189 -171
c154 -73 129 -318 -37 -364 -154 -44 -289 91 -247 247 13 51 75 117 122 131
46 14 116 8 162 -14z m960 0 c154 -73 129 -318 -37 -364 -154 -44 -289 91
-247 247 13 51 75 117 122 131 46 14 116 8 162 -14z m960 0 c154 -73 129 -318
-37 -364 -154 -44 -289 91 -247 247 13 51 75 117 122 131 46 14 116 8 162 -14z
m960 0 c154 -73 129 -318 -37 -364 -154 -44 -289 91 -247 247 13 51 75 117
122 131 46 14 116 8 162 -14z m960 0 c154 -73 129 -318 -37 -364 -154 -44
-289 91 -247 247 13 51 75 117 122 131 46 14 116 8 162 -14z m-3700 -547 c26
-8 60 -31 91 -63 70 -70 75 -92 75 -349 l0 -216 -400 0 -400 0 0 216 c0 141 4
231 12 258 15 51 99 137 148 153 50 16 421 16 474 1z m960 0 c26 -8 60 -31 91
-63 70 -70 75 -92 75 -349 l0 -216 -400 0 -400 0 0 216 c0 141 4 231 12 258
15 51 99 137 148 153 50 16 421 16 474 1z m960 0 c55 -16 138 -99 154 -154 8
-27 12 -117 12 -258 l0 -216 -400 0 -400 0 0 216 c0 141 4 231 12 258 15 51
99 137 148 153 50 16 421 16 474 1z m960 0 c55 -16 138 -99 154 -154 8 -27 12
-117 12 -258 l0 -216 -400 0 -400 0 0 216 c0 141 4 231 12 258 15 51 99 137
148 153 50 16 421 16 474 1z m960 0 c55 -16 138 -99 154 -154 8 -27 12 -117
12 -258 l0 -216 -400 0 -400 0 0 216 c0 141 4 231 12 258 15 51 99 137 148
153 50 16 421 16 474 1z"/>
</g>
</svg>
